# Blender v2.76 (sub 0) OBJ File: 'singleassetgallerydae.blend'
# www.blender.org
mtllib PictureFrames.mtl
o Cube.000_Cube.003
v 6.079323 -0.6 -5.114027
v 6.079323 -0.6 5.114027
v -2.079323 -0.6 -5.114027
v -5.114027 -0.6 6.079323

v 6.079323 3.231835 -5.114027
v 6.079323 3.231835 5.114027
v -5.114027 3.231835 6.079323
v -2.079323 3.231835 -5.114027

v 5.114027 3.231835 6.079323
v 5.114027 -0.6 6.079323
v 5.114027 -0.6 -2.079323
v -2.079323 3.231835 5.114027

v -2.079323 -0.6 5.114027
v -5.114027 3.231835 -2.079323
v -5.114027 -0.6 -2.079323
v 5.114027 3.231835 -2.079323
vt 0.000000 -0.000000
vt 1.000000 0.000000
vt 1.000000 1.000000
vt -0.000000 1.000000
vn -1.000000 0.000000 0.000000
vn 0.000000 0.000000 -1.000000
vn 1.000000 0.000000 0.000000
vn 0.000000 0.000000 1.000000
usemtl Material.004
s off
f 0/0/0 0/0/0 0/0/0
f 0/0/0 0/0/0 0/0/0
f 4/1/3 15/2/3 14/3/3
f 0/0/0 0/0/0 0/0/0
f 0/0/0 0/0/0 0/0/0
f 0/0/0 0/0/0 0/0/0
f 7/4/3 4/1/3 14/3/3
f 0/0/0 0/0/0 0/0/0
